<?xml version="1.0" encoding="UTF-8" standalone="no"?>
<svg
   xmlns:dc="http://purl.org/dc/elements/1.1/"
   xmlns:cc="http://creativecommons.org/ns#"
   xmlns:rdf="http://www.w3.org/1999/02/22-rdf-syntax-ns#"
   xmlns:svg="http://www.w3.org/2000/svg"
   xmlns="http://www.w3.org/2000/svg"
   xmlns:sodipodi="http://sodipodi.sourceforge.net/DTD/sodipodi-0.dtd"
   xmlns:inkscape="http://www.inkscape.org/namespaces/inkscape"
   version="1.1"
   id="svg10"
   xml:space="preserve"
   width="600"
   height="600"
   viewBox="0 0 599.99995 599.99995"
   sodipodi:docname="logo.svg"
   inkscape:version="1.0.2 (e86c8708, 2021-01-15)"><metadata
     id="metadata16"><rdf:RDF><cc:Work
         rdf:about=""><dc:format>image/svg+xml</dc:format><dc:type
           rdf:resource="http://purl.org/dc/dcmitype/StillImage" /><dc:title></dc:title></cc:Work></rdf:RDF></metadata><defs
     id="defs14" /><sodipodi:namedview
     pagecolor="#ffffff"
     bordercolor="#666666"
     borderopacity="1"
     objecttolerance="10"
     gridtolerance="10"
     guidetolerance="10"
     inkscape:pageopacity="0"
     inkscape:pageshadow="2"
     inkscape:window-width="1920"
     inkscape:window-height="954"
     id="namedview12"
     showgrid="false"
     fit-margin-top="0"
     fit-margin-left="0"
     fit-margin-right="0"
     fit-margin-bottom="0"
     inkscape:zoom="0.8121626"
     inkscape:cx="606.08338"
     inkscape:cy="373.69044"
     inkscape:window-x="0"
     inkscape:window-y="25"
     inkscape:window-maximized="0"
     inkscape:current-layer="g20"
     inkscape:document-rotation="0" /><g
     id="g18"
     inkscape:groupmode="layer"
     inkscape:label="ink_ext_XXXXXX"
     transform="matrix(1.3333333,0,0,-1.3333333,-366.34666,876.03998)"><g
       id="g20"
       transform="scale(0.1)"><g
         id="g39"
         transform="translate(-53.898425,1.231458)"><path
           d="m 5019.3685,4120.7135 115.42,-108.76 c 52.6,107.33 81.62,234.17 81.62,378.15 v 1239.86 h -912.63 v -133.51 h 762 v -1106.35 c 0,-101.14 -16.18,-191.1 -46.41,-269.39"
           style="fill:#f9a726;fill-opacity:1;fill-rule:nonzero;stroke:none"
           id="path50" /><path
           d="m 4428.7185,3750.4135 c -366.73,0 -642.54,261.54 -642.54,639.69 h -142.31 c 0,-463.34 332.69,-781.99 784.85,-781.99 208.46,0 392.18,62.34 529.49,177.53 l -107.09,100.66 c -110.42,-89.48 -256.53,-135.89 -422.4,-135.89"
           style="fill:#f9a726;fill-opacity:1;fill-rule:nonzero;stroke:none"
           id="path52" /><path
           d="m 5507.9385,4376.5335 h -153.49 v -570.9 l 153.49,-144.22 v 715.12"
           style="fill:#f9a726;fill-opacity:1;fill-rule:nonzero;stroke:none"
           id="path54" /><path
           d="m 6673.5485,2469.8635 -1014.97,954.05 50.93,47.83 950,890.75 v 14.04 h -184.67 l -864.8,-811.26 -52.36,-49.03 -49.74,46.89 -153.49,144.45 -255.35,239.88 -111.14,104.47 -1331.48,1251.77 1001.17,938.34 v 14.28 h -184.91 l -966.9,-907.17 v 907.17 h -153.5 v -1987.82 h 153.5 v 978.32 l 1397.88,-1312.21 106.85,-100.43 343.88,-322.69 153.49,-144.22 53.54,-49.97 731.31,-686.56 6.66,-3.58 207.27,-193.95 50.46,-47.12 h 36.41 l 7.85,-4.28 3.58,4.28 h 145.64 v 11.42 l -77.11,72.35"
           style="fill:#f9a726;fill-opacity:1;fill-rule:nonzero;stroke:none"
           id="path56" /><path
           d="m 5354.4485,2388.9535 h 153.49 v 880.75 l -153.49,143.98 v -1024.73"
           style="fill:#f9a726;fill-opacity:1;fill-rule:nonzero;stroke:none"
           id="path58" /></g></g></g></svg>
