<?xml version="1.0" standalone="no"?>
<!DOCTYPE svg PUBLIC "-//W3C//DTD SVG 20010904//EN"
 "http://www.w3.org/TR/2001/REC-SVG-20010904/DTD/svg10.dtd">
<svg version="1.0" xmlns="http://www.w3.org/2000/svg"
 width="517.000000pt" height="517.000000pt" viewBox="0 0 517.000000 517.000000"
 preserveAspectRatio="xMidYMid meet">
<metadata>
Created by potrace 1.14, written by Peter Selinger 2001-2017
</metadata>
<g transform="translate(0.000000,517.000000) scale(0.100000,-0.100000)"
fill="#000000" stroke="none">
<path d="M320 3845 c0 -1053 3 -1325 13 -1326 122 -6 186 -3 189 11 2 8 4 302
3 653 0 350 1 637 2 637 1 0 12 -10 25 -22 13 -13 59 -57 103 -98 44 -41 141
-132 215 -202 74 -69 155 -145 180 -168 25 -23 81 -76 125 -119 70 -66 267
-251 375 -351 19 -18 96 -90 170 -160 74 -70 151 -142 170 -160 40 -37 285
-268 340 -320 46 -44 283 -267 330 -310 19 -18 93 -87 164 -154 71 -66 147
-138 170 -160 22 -21 66 -61 96 -90 30 -28 96 -89 145 -136 50 -46 131 -122
180 -169 50 -48 127 -120 171 -161 44 -41 149 -140 234 -220 172 -162 169
-159 334 -314 176 -165 187 -175 273 -253 43 -40 101 -94 129 -120 28 -27 71
-66 95 -88 l44 -41 122 1 c67 1 126 4 130 8 4 4 -5 18 -19 30 -22 20 -181 168
-333 312 -24 22 -102 96 -175 165 -73 69 -150 141 -170 160 -21 19 -86 81
-146 137 -60 55 -136 127 -170 160 -34 32 -121 114 -194 183 -73 69 -158 149
-189 178 l-56 52 65 62 c36 33 118 111 184 172 65 61 139 131 165 156 26 25
105 99 176 165 70 66 145 136 165 155 20 19 93 87 160 150 111 103 191 179
369 347 31 29 53 54 50 57 -4 4 -146 8 -220 7 -30 -1 -28 1 -213 -174 -77 -72
-152 -143 -167 -157 -30 -28 -254 -238 -304 -285 -17 -16 -65 -61 -106 -100
-354 -335 -452 -425 -459 -425 -5 0 -56 46 -242 221 -67 64 -143 136 -168 159
-25 23 -102 96 -172 162 -70 66 -140 132 -155 146 -15 13 -93 86 -172 161 -79
75 -163 154 -186 176 -226 213 -306 287 -340 319 -112 105 -415 391 -550 518
-44 42 -96 90 -115 108 -44 41 -281 264 -369 348 l-66 63 40 35 c22 20 99 92
170 159 72 68 146 137 165 155 41 38 117 109 300 282 74 69 149 138 165 154
28 25 240 225 403 379 40 39 78 72 83 73 5 2 9 10 9 18 0 11 -24 14 -123 14
l-124 0 -34 -32 c-124 -117 -236 -222 -300 -282 -41 -38 -110 -104 -154 -145
-134 -126 -347 -327 -390 -366 -22 -21 -101 -95 -175 -165 -169 -160 -224
-209 -230 -210 -3 0 -5 269 -5 598 l0 597 -102 3 -103 3 0 -1326z"/>
<path d="M1600 4332 c-15 -5 -13 -172 3 -173 6 -1 235 -2 507 -3 l494 -1 1
-763 c0 -796 -4 -884 -43 -1009 l-20 -63 76 -70 c41 -39 78 -68 82 -63 9 9 59
147 65 176 2 10 6 26 9 35 3 9 8 35 11 57 3 22 9 56 12 75 7 44 10 1800 3
1801 -13 3 -1191 4 -1200 1z"/>
<path d="M711 2613 c12 -317 174 -621 424 -793 115 -79 267 -140 414 -166 86
-15 292 -21 347 -10 16 3 49 8 74 11 143 19 322 92 444 181 l49 36 -69 64
c-37 35 -72 64 -77 64 -5 0 -28 -14 -53 -31 -94 -64 -239 -117 -374 -134 -64
-9 -240 -9 -267 -1 -10 3 -34 8 -53 11 -101 17 -233 71 -322 133 -209 144
-341 394 -347 660 l-1 42 -96 0 -95 0 2 -67z"/>
<path d="M3043 2662 l-53 -3 0 -381 0 -380 53 -50 c69 -65 119 -110 137 -125
13 -10 15 44 15 462 l0 473 -50 4 c-27 2 -74 2 -102 0z"/>
<path d="M2990 692 l0 -682 103 0 102 0 -1 586 0 586 -70 67 c-39 36 -85 79
-102 95 l-32 30 0 -682z"/>
</g>
</svg>
