<?xml version="1.0" standalone="no"?>
<!DOCTYPE svg PUBLIC "-//W3C//DTD SVG 20010904//EN"
 "http://www.w3.org/TR/2001/REC-SVG-20010904/DTD/svg10.dtd">
<svg version="1.0" xmlns="http://www.w3.org/2000/svg"
 width="700.000000pt" height="700.000000pt" viewBox="0 0 700.000000 700.000000"
 preserveAspectRatio="xMidYMid meet">
<metadata>
Created by potrace 1.14, written by Peter Selinger 2001-2017
</metadata>
<g transform="translate(0.000000,700.000000) scale(0.100000,-0.100000)"
fill="#000000" stroke="none">
<path d="M1022 6100 l3 -305 570 -1 c314 -1 575 -2 580 -3 7 -1 10 -580 9
-1718 -1 -1544 -5 -1943 -18 -2023 -3 -14 -7 -52 -11 -85 -26 -270 -136 -475
-311 -577 -171 -99 -361 -137 -664 -133 -168 3 -194 4 -291 20 -64 10 -296 71
-423 111 -59 19 -116 34 -126 34 -16 0 -17 -25 -17 -355 0 -318 1 -355 16
-359 30 -9 226 -44 281 -51 30 -3 66 -8 80 -10 14 -2 50 -6 80 -10 30 -3 71
-7 90 -10 103 -15 314 -28 440 -28 152 0 280 14 464 49 76 14 239 71 343 119
69 32 102 37 88 15 -3 -6 144 -9 355 -9 l360 1 0 984 0 985 48 46 c26 25 174
170 330 322 392 382 516 501 522 501 3 0 68 -93 145 -206 77 -114 145 -212
150 -218 6 -6 26 -36 45 -66 19 -30 37 -57 40 -60 3 -3 51 -70 105 -150 54
-80 117 -172 140 -205 23 -33 84 -123 137 -200 108 -157 744 -1085 1013 -1476
l176 -257 449 0 c375 -1 450 1 450 13 0 7 -4 15 -8 17 -4 1 -84 111 -177 243
-186 264 -252 359 -495 703 -91 128 -169 240 -175 250 -5 9 -13 19 -16 22 -3
3 -27 37 -54 75 -26 39 -55 80 -64 91 -9 12 -22 30 -29 40 -21 31 -272 387
-288 409 -8 11 -68 97 -134 190 -65 94 -123 175 -127 180 -5 6 -35 48 -67 95
-33 47 -101 144 -151 215 -51 72 -184 261 -297 420 -112 160 -221 313 -241
341 l-37 51 1128 1125 c621 618 1131 1129 1135 1134 4 7 -148 10 -459 10 -336
-1 -467 -4 -472 -12 -4 -7 -163 -171 -353 -365 -190 -195 -388 -397 -438 -449
-51 -52 -237 -243 -414 -424 -177 -181 -365 -373 -417 -427 -284 -291 -729
-747 -902 -923 l-197 -201 -1 1403 c0 771 -3 1403 -7 1403 -5 1 -432 2 -951 3
l-942 1 2 -305z"/>
</g>
</svg>
